<mxfile host="65bd71144e">
    <diagram id="E2PMlL6jtuZNUDNhcZMe" name="Page-1">
        <mxGraphModel dx="2042" dy="1932" grid="1" gridSize="10" guides="1" tooltips="1" connect="1" arrows="1" fold="1" page="1" pageScale="1" pageWidth="850" pageHeight="1100" math="0" shadow="0">
            <root>
                <mxCell id="0"/>
                <mxCell id="1" parent="0"/>
                <mxCell id="36" value="End" style="ellipse;whiteSpace=wrap;html=1;" vertex="1" parent="1">
                    <mxGeometry x="184.70999999999995" y="-540" width="120" height="50" as="geometry"/>
                </mxCell>
                <mxCell id="72" style="edgeStyle=none;html=1;" edge="1" parent="1" source="37" target="39">
                    <mxGeometry relative="1" as="geometry"/>
                </mxCell>
                <mxCell id="37" value="Start" style="ellipse;whiteSpace=wrap;html=1;" vertex="1" parent="1">
                    <mxGeometry x="184.71" y="-1060" width="120" height="50" as="geometry"/>
                </mxCell>
                <mxCell id="38" value="" style="edgeStyle=none;html=1;" edge="1" parent="1" source="39" target="45">
                    <mxGeometry relative="1" as="geometry"/>
                </mxCell>
                <mxCell id="39" value="show &quot;Enter num : &quot;" style="shape=parallelogram;perimeter=parallelogramPerimeter;whiteSpace=wrap;html=1;fixedSize=1;" vertex="1" parent="1">
                    <mxGeometry x="178.02" y="-990" width="133.37" height="30" as="geometry"/>
                </mxCell>
                <mxCell id="77" style="edgeStyle=none;html=1;entryX=0.5;entryY=0;entryDx=0;entryDy=0;" edge="1" parent="1" source="43" target="76">
                    <mxGeometry relative="1" as="geometry"/>
                </mxCell>
                <mxCell id="43" value="digits ← log⏨(num) + 1" style="rounded=0;whiteSpace=wrap;html=1;" vertex="1" parent="1">
                    <mxGeometry x="157.42999999999998" y="-890" width="174.56" height="30" as="geometry"/>
                </mxCell>
                <mxCell id="44" value="" style="edgeStyle=none;html=1;" edge="1" parent="1" source="45" target="43">
                    <mxGeometry relative="1" as="geometry"/>
                </mxCell>
                <mxCell id="45" value="input &quot;num&quot;" style="shape=parallelogram;perimeter=parallelogramPerimeter;whiteSpace=wrap;html=1;fixedSize=1;" vertex="1" parent="1">
                    <mxGeometry x="174.46" y="-940" width="140.5" height="30" as="geometry"/>
                </mxCell>
                <mxCell id="58" style="edgeStyle=none;html=1;entryX=1;entryY=0.5;entryDx=0;entryDy=0;" edge="1" parent="1" source="59">
                    <mxGeometry relative="1" as="geometry">
                        <mxPoint x="392.8700000000763" y="-725" as="targetPoint"/>
                        <Array as="points">
                            <mxPoint x="390.12" y="-490"/>
                            <mxPoint x="580.1199999999999" y="-490"/>
                            <mxPoint x="580.1199999999999" y="-725"/>
                        </Array>
                    </mxGeometry>
                </mxCell>
                <mxCell id="73" value="" style="shape=partialRectangle;whiteSpace=wrap;html=1;bottom=1;right=1;left=1;top=0;fillColor=none;routingCenterX=-0.5;rotation=90;" vertex="1" parent="1">
                    <mxGeometry x="366.84000000000003" y="-890" width="80" height="20" as="geometry"/>
                </mxCell>
                <mxCell id="74" value="" style="line;strokeWidth=2;html=1;" vertex="1" parent="1">
                    <mxGeometry x="366.84000000000003" y="-880" width="30" height="10" as="geometry"/>
                </mxCell>
                <mxCell id="75" value="เพื่อหาว่ามีกี่หลัก เช่น 10^x = 1000&lt;div&gt;ได้ 4&lt;/div&gt;" style="rounded=0;whiteSpace=wrap;html=1;fillColor=#19FF00;" vertex="1" parent="1">
                    <mxGeometry x="406.84000000000003" y="-910" width="180" height="60" as="geometry"/>
                </mxCell>
                <mxCell id="82" value="" style="edgeStyle=none;html=1;" edge="1" parent="1" source="76" target="81">
                    <mxGeometry relative="1" as="geometry"/>
                </mxCell>
                <mxCell id="76" value="&lt;div&gt;&lt;span style=&quot;background-color: transparent;&quot;&gt;sum ← cal_armstrong( num , digits )&lt;/span&gt;&lt;/div&gt;" style="rounded=0;whiteSpace=wrap;html=1;" vertex="1" parent="1">
                    <mxGeometry x="130.00000000000003" y="-800" width="229.41" height="40" as="geometry"/>
                </mxCell>
                <mxCell id="78" value="" style="shape=partialRectangle;whiteSpace=wrap;html=1;bottom=1;right=1;left=1;top=0;fillColor=none;routingCenterX=-0.5;rotation=90;" vertex="1" parent="1">
                    <mxGeometry x="366.84000000000003" y="-795" width="80" height="20" as="geometry"/>
                </mxCell>
                <mxCell id="79" value="" style="line;strokeWidth=2;html=1;" vertex="1" parent="1">
                    <mxGeometry x="366.84000000000003" y="-785" width="30" height="10" as="geometry"/>
                </mxCell>
                <mxCell id="80" value="มีการเรียกใช้ function&amp;nbsp;&lt;div&gt;cal_armstrong()&lt;/div&gt;" style="rounded=0;whiteSpace=wrap;html=1;fillColor=#FCFF0E;" vertex="1" parent="1">
                    <mxGeometry x="406.84000000000003" y="-815" width="180" height="60" as="geometry"/>
                </mxCell>
                <mxCell id="84" style="edgeStyle=none;html=1;entryX=0.5;entryY=0;entryDx=0;entryDy=0;" edge="1" parent="1" source="81" target="83">
                    <mxGeometry relative="1" as="geometry"/>
                </mxCell>
                <mxCell id="85" value="False" style="edgeLabel;html=1;align=center;verticalAlign=middle;resizable=0;points=[];" vertex="1" connectable="0" parent="84">
                    <mxGeometry x="-0.049" y="1" relative="1" as="geometry">
                        <mxPoint as="offset"/>
                    </mxGeometry>
                </mxCell>
                <mxCell id="87" style="edgeStyle=none;html=1;entryX=0.5;entryY=0;entryDx=0;entryDy=0;" edge="1" parent="1" source="81" target="86">
                    <mxGeometry relative="1" as="geometry">
                        <Array as="points">
                            <mxPoint x="381.84000000000003" y="-700"/>
                        </Array>
                    </mxGeometry>
                </mxCell>
                <mxCell id="88" value="True" style="edgeLabel;html=1;align=center;verticalAlign=middle;resizable=0;points=[];" vertex="1" connectable="0" parent="87">
                    <mxGeometry x="-0.5464" y="2" relative="1" as="geometry">
                        <mxPoint as="offset"/>
                    </mxGeometry>
                </mxCell>
                <mxCell id="81" value="&lt;span style=&quot;color: rgb(0, 0, 0);&quot;&gt;sum = num&lt;/span&gt;" style="rhombus;whiteSpace=wrap;html=1;" vertex="1" parent="1">
                    <mxGeometry x="181.4" y="-730" width="126.6" height="60" as="geometry"/>
                </mxCell>
                <mxCell id="90" style="edgeStyle=none;html=1;entryX=0.5;entryY=0;entryDx=0;entryDy=0;" edge="1" parent="1" source="83" target="89">
                    <mxGeometry relative="1" as="geometry"/>
                </mxCell>
                <mxCell id="83" value="show &quot;Not Pass. &quot;" style="shape=parallelogram;perimeter=parallelogramPerimeter;whiteSpace=wrap;html=1;fixedSize=1;" vertex="1" parent="1">
                    <mxGeometry x="178.01000000000002" y="-630" width="133.37" height="30" as="geometry"/>
                </mxCell>
                <mxCell id="91" style="edgeStyle=none;html=1;entryX=1;entryY=0.5;entryDx=0;entryDy=0;" edge="1" parent="1" source="86" target="89">
                    <mxGeometry relative="1" as="geometry">
                        <Array as="points">
                            <mxPoint x="381.84000000000003" y="-565"/>
                        </Array>
                    </mxGeometry>
                </mxCell>
                <mxCell id="86" value="show &quot;Pass. &quot;" style="shape=parallelogram;perimeter=parallelogramPerimeter;whiteSpace=wrap;html=1;fixedSize=1;" vertex="1" parent="1">
                    <mxGeometry x="325.99" y="-630" width="111.69" height="30" as="geometry"/>
                </mxCell>
                <mxCell id="93" style="edgeStyle=none;html=1;entryX=0.5;entryY=0;entryDx=0;entryDy=0;" edge="1" parent="1" source="89" target="36">
                    <mxGeometry relative="1" as="geometry"/>
                </mxCell>
                <mxCell id="89" value="" style="ellipse;whiteSpace=wrap;html=1;aspect=fixed;" vertex="1" parent="1">
                    <mxGeometry x="239.71000000000004" y="-570" width="10" height="10" as="geometry"/>
                </mxCell>
                <mxCell id="94" value="cal_armstrong(&amp;nbsp; ,&amp;nbsp; )&amp;nbsp; //ใช้แบบ&amp;nbsp;Recursion Function&amp;nbsp;" style="swimlane;whiteSpace=wrap;html=1;" vertex="1" parent="1">
                    <mxGeometry x="640" y="-1070" width="750" height="430" as="geometry"/>
                </mxCell>
                <mxCell id="100" style="edgeStyle=none;html=1;entryX=0.5;entryY=0;entryDx=0;entryDy=0;" edge="1" parent="94" source="95" target="96">
                    <mxGeometry relative="1" as="geometry"/>
                </mxCell>
                <mxCell id="95" value="cal_armstrongn( num , digits )" style="ellipse;whiteSpace=wrap;html=1;" vertex="1" parent="94">
                    <mxGeometry x="247.85" y="40" width="180" height="40" as="geometry"/>
                </mxCell>
                <mxCell id="99" style="edgeStyle=none;html=1;entryX=0.5;entryY=0;entryDx=0;entryDy=0;" edge="1" parent="94" source="96" target="98">
                    <mxGeometry relative="1" as="geometry"/>
                </mxCell>
                <mxCell id="106" value="True" style="edgeLabel;html=1;align=center;verticalAlign=middle;resizable=0;points=[];" vertex="1" connectable="0" parent="99">
                    <mxGeometry x="-0.3543" relative="1" as="geometry">
                        <mxPoint y="2" as="offset"/>
                    </mxGeometry>
                </mxCell>
                <mxCell id="96" value="num = 0" style="rhombus;whiteSpace=wrap;html=1;" vertex="1" parent="94">
                    <mxGeometry x="274.2699999999999" y="100" width="126.6" height="60" as="geometry"/>
                </mxCell>
                <mxCell id="102" style="edgeStyle=none;html=1;entryX=0.5;entryY=0;entryDx=0;entryDy=0;" edge="1" parent="94" source="98" target="101">
                    <mxGeometry relative="1" as="geometry"/>
                </mxCell>
                <mxCell id="98" value="position = num % 10" style="rounded=0;whiteSpace=wrap;html=1;" vertex="1" parent="94">
                    <mxGeometry x="273.71000000000004" y="190" width="128.28" height="30" as="geometry"/>
                </mxCell>
                <mxCell id="109" style="edgeStyle=none;html=1;entryX=0.5;entryY=0;entryDx=0;entryDy=0;" edge="1" parent="94" source="101" target="108">
                    <mxGeometry relative="1" as="geometry"/>
                </mxCell>
                <mxCell id="101" value="return position^digits + cal_armstrong( num / 10&amp;nbsp; , digits)" style="rounded=0;whiteSpace=wrap;html=1;" vertex="1" parent="94">
                    <mxGeometry x="180" y="240" width="315.14" height="30" as="geometry"/>
                </mxCell>
                <mxCell id="110" style="edgeStyle=none;html=1;entryX=0;entryY=0.5;entryDx=0;entryDy=0;" edge="1" parent="94" source="103" target="108">
                    <mxGeometry relative="1" as="geometry">
                        <Array as="points">
                            <mxPoint x="94" y="305"/>
                        </Array>
                    </mxGeometry>
                </mxCell>
                <mxCell id="103" value="return 0" style="rounded=0;whiteSpace=wrap;html=1;" vertex="1" parent="94">
                    <mxGeometry x="30" y="240" width="128.28" height="30" as="geometry"/>
                </mxCell>
                <mxCell id="104" style="edgeStyle=none;html=1;entryX=0.5;entryY=0;entryDx=0;entryDy=0;" edge="1" parent="94" source="96" target="103">
                    <mxGeometry relative="1" as="geometry">
                        <mxPoint x="100" y="240" as="targetPoint"/>
                        <Array as="points">
                            <mxPoint x="94" y="130"/>
                        </Array>
                    </mxGeometry>
                </mxCell>
                <mxCell id="105" value="False" style="edgeLabel;html=1;align=center;verticalAlign=middle;resizable=0;points=[];" vertex="1" connectable="0" parent="104">
                    <mxGeometry x="-0.5546" y="-2" relative="1" as="geometry">
                        <mxPoint as="offset"/>
                    </mxGeometry>
                </mxCell>
                <mxCell id="112" style="edgeStyle=none;html=1;entryX=0.5;entryY=0;entryDx=0;entryDy=0;" edge="1" parent="94" source="108" target="111">
                    <mxGeometry relative="1" as="geometry"/>
                </mxCell>
                <mxCell id="108" value="" style="ellipse;whiteSpace=wrap;html=1;aspect=fixed;" vertex="1" parent="94">
                    <mxGeometry x="332.85" y="300" width="10" height="10" as="geometry"/>
                </mxCell>
                <mxCell id="111" value="End function" style="ellipse;whiteSpace=wrap;html=1;" vertex="1" parent="94">
                    <mxGeometry x="247.85000000000002" y="340" width="180" height="40" as="geometry"/>
                </mxCell>
                <mxCell id="113" value="" style="shape=partialRectangle;whiteSpace=wrap;html=1;bottom=1;right=1;left=1;top=0;fillColor=none;routingCenterX=-0.5;rotation=90;" vertex="1" parent="94">
                    <mxGeometry x="500" y="240" width="80" height="20" as="geometry"/>
                </mxCell>
                <mxCell id="114" value="" style="line;strokeWidth=2;html=1;" vertex="1" parent="94">
                    <mxGeometry x="500" y="250" width="30" height="10" as="geometry"/>
                </mxCell>
                <mxCell id="115" value="มีการเรียกใช้ function ซ้อน&amp;nbsp;&lt;span style=&quot;color: rgb(0, 0, 0);&quot;&gt;function&lt;/span&gt;&lt;div&gt;ของ cal_armstrong()&lt;/div&gt;" style="rounded=0;whiteSpace=wrap;html=1;fillColor=#FCFF0E;" vertex="1" parent="94">
                    <mxGeometry x="540" y="220" width="190" height="60" as="geometry"/>
                </mxCell>
            </root>
        </mxGraphModel>
    </diagram>
</mxfile>